<svg width="288" height="30" viewBox="0 0 288 30" fill="none" xmlns="http://www.w3.org/2000/svg">
<g clip-path="url(#clip0_5928_511)">
<g clip-path="url(#clip1_5928_511)">
<path d="M9.50195 0.651367C11.6044 -0.883233 14.4581 -0.883233 16.5605 0.651367L17.1914 1.11133C15.5861 0.792717 13.8781 1.13799 12.4951 2.14746L5.44922 7.29004C3.90543 8.41693 2.99319 10.2137 2.99316 12.125V22.0186C2.9933 23.7539 3.7322 25.316 4.91211 26.4092C2.11882 25.9031 0 23.4607 0 20.5215V10.6289C0 8.7175 0.913159 6.92085 2.45703 5.79395L9.50195 0.651367Z" fill="white"/>
<path d="M5.98584 13.6218C5.98584 11.7104 6.89869 9.91395 8.44256 8.78705L15.4883 3.64425C17.5907 2.10965 20.4438 2.10965 22.5463 3.64425L29.5919 8.78705C31.1358 9.91395 32.0487 11.7104 32.0487 13.6218V23.5148C32.0487 26.8206 29.3688 29.5005 26.0629 29.5005H11.9716C8.66574 29.5005 5.98584 26.8206 5.98584 23.5148V13.6218Z" fill="white"/>
<path fill-rule="evenodd" clip-rule="evenodd" d="M36.1162 2.56445V28.9489H42.9954V19.7917C42.9954 17.2038 43.9167 15.9022 45.7747 15.9022C46.7114 15.9022 47.3717 16.2084 47.7402 16.821C48.1088 17.4335 48.293 18.3063 48.293 19.4395V28.9336H55.1569V17.9235C55.1569 16.5147 55.0494 15.259 54.8191 14.1718C54.6041 13.0846 54.1434 12.1658 53.4524 11.4461C52.4697 10.3282 50.9495 9.76161 48.8765 9.76161C47.4178 9.76161 46.2047 10.0679 45.222 10.6651C44.2392 11.2623 43.5022 12.0279 43.0108 12.962V2.56445H36.1162ZM102.636 19.1945V28.9642H109.546V17.7244C109.546 16.6219 109.454 15.5806 109.285 14.6159C109.116 13.6511 108.793 12.8089 108.348 12.0892C107.887 11.3695 107.258 10.8029 106.429 10.3894C105.599 9.97599 104.54 9.76161 103.235 9.76161C101.822 9.76161 100.64 10.0832 99.6414 10.711C98.6587 11.3389 97.9063 12.1505 97.3842 13.1611C97.0157 12.1505 96.4168 11.3389 95.5723 10.711C94.7277 10.0832 93.5453 9.76161 91.9791 9.76161C90.5971 9.76161 89.4455 10.0832 88.5241 10.711C87.6028 11.3389 86.9272 12.0892 86.5126 12.9774V10.221H79.6334V28.9642H86.5126V19.8376C86.5126 18.3523 86.7429 17.3263 87.2036 16.7597C87.6642 16.1931 88.2477 15.9175 88.9541 15.9175C89.7372 15.9175 90.3054 16.1931 90.6432 16.7444C90.981 17.2957 91.1499 18.1073 91.1499 19.1945V28.9642H98.0291V19.6079C98.0291 18.2298 98.2594 17.265 98.7201 16.7291C99.1808 16.1931 99.7643 15.9175 100.471 15.9175C101.914 15.9175 102.636 17.0047 102.636 19.1945ZM121.492 14.2943C120.555 14.2943 119.788 14.5699 119.173 15.1365C118.575 15.7031 118.268 16.5147 118.268 17.5713H124.625C124.625 16.5453 124.348 15.7337 123.78 15.1518C123.227 14.5852 122.46 14.2943 121.492 14.2943ZM118.482 22.4562C118.375 22.0427 118.298 21.614 118.283 21.1546H131.673C131.765 20.6033 131.826 20.098 131.857 19.6692C131.888 19.2251 131.888 18.7963 131.888 18.3676C131.888 17.265 131.657 16.1931 131.197 15.1518C130.736 14.1105 130.076 13.1917 129.201 12.3802C128.325 11.5686 127.25 10.9254 125.961 10.4354C124.686 9.94537 123.197 9.70036 121.523 9.70036C119.772 9.70036 118.237 9.96068 116.932 10.4966C115.626 11.0326 114.536 11.737 113.661 12.6252C112.786 13.5133 112.125 14.5699 111.68 15.7797C111.235 16.9894 111.02 18.2604 111.02 19.6232C111.02 21.1239 111.265 22.4868 111.741 23.6965C112.217 24.9063 112.924 25.9322 113.845 26.8051C114.766 27.6779 115.887 28.3364 117.193 28.7958C118.498 29.2552 119.987 29.5002 121.661 29.5002C123.089 29.5002 124.379 29.3318 125.546 28.9949C126.698 28.658 127.696 28.1833 128.54 27.5861C129.385 26.9888 130.06 26.2691 130.567 25.4422C131.089 24.6153 131.412 23.7272 131.565 22.7624H124.563C124.41 23.3137 124.087 23.7731 123.596 24.1253C123.104 24.4775 122.444 24.6459 121.63 24.6459C120.985 24.6459 120.448 24.5388 120.018 24.3397C119.588 24.1406 119.25 23.8803 119.005 23.574C118.774 23.2371 118.59 22.8696 118.482 22.4562Z" fill="white"/>
<path d="M67.994 23.7272C69.3759 22.9003 70.3126 21.369 70.3126 19.6233C70.3126 17.8776 69.3759 16.331 67.994 15.5194C68.6696 15.1212 69.4681 14.8915 70.3126 14.8915C72.8616 14.8915 74.9346 17.0201 74.9346 19.6233C74.9346 22.2265 72.8616 24.355 70.3126 24.355C69.4681 24.3703 68.6696 24.1406 67.994 23.7272Z" fill="white"/>
<path d="M69.0536 10.1292C64.9998 11.293 62.0208 15.1059 62.0208 19.6233C62.0208 24.1407 64.9998 27.9536 69.0536 29.1174C68.2244 29.3471 67.3645 29.4849 66.4585 29.4849C61.1456 29.4849 56.8307 25.0748 56.8307 19.6233C56.8307 14.1718 61.1456 9.76168 66.4585 9.76168C67.3645 9.76168 68.2397 9.89949 69.0536 10.1292Z" fill="white"/>
<path d="M201.49 20.4769C201.49 21.1579 201.662 22.0092 201.833 22.6902C202.004 23.3712 202.347 24.0522 202.861 24.563C203.377 25.0738 203.891 25.5845 204.576 25.925C205.433 26.2656 206.29 26.4358 207.319 26.4358C209.376 26.6061 211.433 25.4143 212.119 23.5415H215.719C215.548 24.3927 215.205 25.0738 214.862 25.7548C214.348 26.4358 213.834 27.1169 213.147 27.6276C212.462 28.1384 211.605 28.6492 210.577 28.9896C209.547 29.3302 208.519 29.5005 207.319 29.5005C205.947 29.5005 204.405 29.3302 203.204 28.6492C202.005 28.1384 201.148 27.4573 200.291 26.6061C199.433 25.7548 198.919 24.563 198.576 23.5415C197.719 20.9876 197.719 18.2634 198.576 15.8799C198.919 14.6881 199.433 13.6666 200.291 12.8153C201.148 11.964 202.176 11.283 203.204 10.7722C204.405 10.2614 205.776 9.92091 207.148 10.0912C208.348 10.0912 209.547 10.2614 210.577 10.7722C211.605 11.1127 212.633 11.7937 213.32 12.4748C214.177 13.1558 214.691 14.1773 215.205 15.1988C215.719 16.2204 215.89 17.4123 215.89 18.604C215.89 18.9446 215.89 19.285 215.89 19.6256C215.89 20.1363 215.89 20.4769 215.719 20.9876H201.49V20.4769ZM207.319 12.4748C205.947 12.4748 204.405 12.9855 203.377 13.8368C202.347 14.8584 201.662 16.2204 201.833 17.7527H212.805C212.805 16.2204 212.29 14.8584 211.262 13.8368C210.061 12.8153 208.69 12.4748 207.319 12.4748Z" fill="white"/>
<path d="M187.841 29.4765C186.261 29.4765 184.753 29.261 183.316 28.8301C181.903 28.3991 180.79 27.8724 179.976 27.2498L180.176 23.9098C180.99 24.4605 183.232 25.5379 184.429 25.921C185.627 26.3041 186.848 26.4956 188.093 26.4956C189.697 26.4956 190.846 26.2682 191.54 25.8133C192.259 25.3583 192.618 24.7239 192.618 23.9098C192.618 23.3112 192.402 22.8443 191.971 22.5091C191.54 22.1739 190.966 21.9225 190.248 21.7549C189.553 21.5873 188.775 21.4437 187.913 21.324C187.051 21.1803 186.189 21.0127 185.327 20.8212C184.465 20.6057 183.675 20.3184 182.957 19.9592C182.239 19.5761 181.664 19.0614 181.233 18.4149C180.802 17.7445 180.587 16.8586 180.587 15.7573C180.587 14.608 180.91 13.6024 181.556 12.7405C182.203 11.8785 183.113 11.2201 184.286 10.7652C185.483 10.2863 186.896 10.0469 188.524 10.0469C189.769 10.0469 191.026 10.2025 192.295 10.5138C193.588 10.8011 194.641 11.2201 195.455 11.7708L195.383 14.8409C194.521 14.2663 192.474 13.3126 191.54 13.0971C190.607 12.8816 189.673 12.7405 188.739 12.7405C187.231 12.7405 185.854 13.2433 185.112 13.7461C184.37 14.2249 183.998 14.8474 183.998 15.6136C183.998 16.2601 184.214 16.7629 184.645 17.122C185.1 17.4572 185.674 17.7206 186.369 17.9121C187.087 18.1037 187.877 18.2713 188.739 18.4149C189.601 18.5346 190.463 18.7022 191.325 18.9177C192.187 19.1093 192.965 19.3846 193.659 19.7437C194.378 20.1029 194.952 20.6057 195.383 21.2521C195.838 21.8986 196.066 22.7605 196.066 23.838C196.066 24.9872 195.73 25.9809 195.06 26.8189C194.39 27.6569 193.444 28.3153 192.223 28.7942C191.002 29.2491 189.541 29.4765 187.841 29.4765Z" fill="white"/>
<path d="M177.68 10.55V28.9974H173.888V25.811C173.166 26.985 172.263 27.8235 170.998 28.4943C169.735 29.1651 168.29 29.5005 166.845 29.5005C165.399 29.5005 163.954 29.3328 162.691 28.6619C161.426 28.1589 160.343 27.4881 159.44 26.4818C158.537 25.6433 157.814 24.4694 157.453 23.4631C156.912 22.2893 156.73 21.1153 156.73 19.7737C156.73 18.4321 156.912 17.2582 157.453 16.0842C157.995 14.9103 158.717 13.9041 159.44 13.0655C160.343 12.227 161.426 11.3885 162.691 10.8854C163.954 10.3823 165.399 10.0469 166.845 10.0469C168.29 10.0469 169.735 10.3823 170.998 11.0531C172.263 11.7239 173.166 12.5624 173.888 13.7364V10.55H177.68ZM167.205 26.3142C168.109 26.3142 169.192 26.1465 169.915 25.811C170.638 25.4756 171.36 24.9725 172.083 24.4694C172.624 23.7986 173.166 23.1278 173.527 22.457C174.069 20.7799 174.069 19.1029 173.527 17.4258C173.166 16.5873 172.804 15.9165 172.083 15.4134C171.54 14.7426 170.818 14.4071 169.915 14.0718C169.012 13.7364 168.109 13.5687 167.205 13.5687C166.302 13.5687 165.399 13.7364 164.497 14.0718C163.774 14.4071 163.052 14.9103 162.51 15.4134C161.968 16.0842 161.426 16.755 161.246 17.4258C160.705 19.1029 160.705 20.7799 161.246 22.457C161.606 23.1278 161.968 23.9663 162.51 24.4694C163.052 25.1402 163.774 25.4756 164.497 25.811C165.219 26.1465 166.302 26.3142 167.205 26.3142Z" fill="white"/>
<path d="M134.284 28.9979L134.284 2.56524L138.077 2.56524L138.077 13.7369C138.799 12.5629 139.702 11.7243 140.967 11.0535C142.23 10.3827 143.675 10.0474 145.12 10.0474C146.566 10.0474 148.01 10.215 149.274 10.8859C150.539 11.389 151.622 12.0598 152.525 13.0661C153.428 13.9046 154.151 15.0785 154.511 16.0847C155.053 17.2586 155.234 18.4326 155.234 19.7742C155.234 21.1158 155.053 22.2897 154.511 23.4637C153.97 24.6375 153.248 25.6438 152.525 26.4823C151.622 27.3208 150.539 28.1593 149.274 28.6625C148.01 29.1656 146.566 29.501 145.12 29.501C143.675 29.501 142.23 29.1656 140.967 28.4948C139.702 27.8239 138.799 26.9854 138.077 25.8115L138.077 28.9979L134.284 28.9979ZM144.759 13.2337C143.856 13.2337 142.773 13.4014 142.05 13.7369C141.327 14.0722 140.605 14.5754 139.882 15.0785C139.341 15.7493 138.799 16.4201 138.437 17.0909C137.896 18.7679 137.896 20.445 138.437 22.1221C138.799 22.9606 139.16 23.6314 139.882 24.1345C140.425 24.8053 141.147 25.1407 142.05 25.4761C142.953 25.8115 143.856 25.9792 144.759 25.9792C145.663 25.9792 146.566 25.8115 147.468 25.4761C148.191 25.1407 148.912 24.6375 149.455 24.1345C149.997 23.4637 150.539 22.7929 150.719 22.1221C151.26 20.445 151.26 18.7679 150.719 17.0909C150.358 16.4201 149.997 15.5815 149.455 15.0785C148.912 14.4077 148.191 14.0722 147.468 13.7369C146.746 13.4014 145.663 13.2337 144.759 13.2337Z" fill="white"/>
</g>
</g>
<defs>
<clipPath id="clip0_5928_511">
<rect width="287.5" height="30" fill="white"/>
</clipPath>
<clipPath id="clip1_5928_511">
<rect width="287.5" height="30" fill="white" transform="translate(0 -0.25)"/>
</clipPath>
</defs>
</svg>
